<svg width="239" height="17" viewBox="0 0 239 17" fill="none" xmlns="http://www.w3.org/2000/svg">
<path d="M0 0L239 0V3L0 3L0 0Z" fill="#D0232F"/>
<path fill-rule="evenodd" clip-rule="evenodd" d="M238 1L1 1V2L238 2V1ZM0 0L0 3L239 3V0L0 0Z" fill="#27262C"/>
<path d="M0 2L239 2V6L0 6L0 2Z" fill="#D0232F"/>
<path fill-rule="evenodd" clip-rule="evenodd" d="M238 3L1 3V5L238 5V3ZM0 2L0 6L239 6V2L0 2Z" fill="#27262C"/>
<path d="M0 5L239 5V9L0 9L0 5Z" fill="#D0232F"/>
<path fill-rule="evenodd" clip-rule="evenodd" d="M238 6L1 6V8L238 8V6ZM0 5L0 9L239 9V5L0 5Z" fill="#27262C"/>
<path d="M0 8L239 8V12L0 12L0 8Z" fill="#D0232F"/>
<path fill-rule="evenodd" clip-rule="evenodd" d="M238 9L1 9V11L238 11V9ZM0 8L0 12L239 12V8L0 8Z" fill="#27262C"/>
<path d="M0 11L239 11V15L0 15L0 11Z" fill="#D0232F"/>
<path fill-rule="evenodd" clip-rule="evenodd" d="M238 12L1 12V14L238 14V12ZM0 11L0 15L239 15V11L0 11Z" fill="#27262C"/>
<path d="M0 14L239 14V17H0L0 14Z" fill="#D0232F"/>
<path fill-rule="evenodd" clip-rule="evenodd" d="M238 15L1 15V16H238V15ZM0 14L0 17H239V14L0 14Z" fill="#27262C"/>
<path d="M150 2H160V12H150V2Z" fill="#D0232F"/>
<path fill-rule="evenodd" clip-rule="evenodd" d="M159 3H151V11H159V3ZM150 2V12H160V2H150Z" fill="#27262C"/>
<path d="M150 7C150 4.23858 152.239 2 155 2C157.761 2 160 4.23858 160 7C160 9.76142 157.761 12 155 12C152.239 12 150 9.76142 150 7Z" fill="#D0232F"/>
<path fill-rule="evenodd" clip-rule="evenodd" d="M151 7C151 9.20914 152.791 11 155 11C157.209 11 159 9.20914 159 7C159 4.79086 157.209 3 155 3C152.791 3 151 4.79086 151 7ZM155 2C152.239 2 150 4.23858 150 7C150 9.76142 152.239 12 155 12C157.761 12 160 9.76142 160 7C160 4.23858 157.761 2 155 2Z" fill="#27262C"/>
<path d="M153 11H157V13H153V11Z" fill="#D0232F"/>
<path fill-rule="evenodd" clip-rule="evenodd" d="M153 11V13H157V11H153Z" fill="#27262C"/>
<path d="M159 7H164V10H159V7Z" fill="#D0232F"/>
<path fill-rule="evenodd" clip-rule="evenodd" d="M163 8H160V9H163V8ZM159 7V10H164V7H159Z" fill="#27262C"/>
<path d="M163 6H166V10H163V6Z" fill="#D0232F"/>
<path fill-rule="evenodd" clip-rule="evenodd" d="M165 7H164V9H165V7ZM163 6V10H166V6H163Z" fill="#27262C"/>
<path d="M189 5.5C189 6.32843 188.328 7 187.5 7C186.672 7 186 6.32843 186 5.5C186 4.67157 186.672 4 187.5 4C188.328 4 189 4.67157 189 5.5Z" fill="#27262C"/>
<path d="M185 10C185 11.1046 183.657 12 182 12C180.343 12 179 11.1046 179 10C179 8.89543 180.343 8 182 8C183.657 8 185 8.89543 185 10Z" fill="#D0232F"/>
<path fill-rule="evenodd" clip-rule="evenodd" d="M183.567 10.5822C183.931 10.3394 184 10.1139 184 10C184 9.8861 183.931 9.66058 183.567 9.41784C183.21 9.17976 182.659 9 182 9C181.341 9 180.79 9.17976 180.433 9.41784C180.069 9.66058 180 9.8861 180 10C180 10.1139 180.069 10.3394 180.433 10.5822C180.79 10.8202 181.341 11 182 11C182.659 11 183.21 10.8202 183.567 10.5822ZM182 12C183.657 12 185 11.1046 185 10C185 8.89543 183.657 8 182 8C180.343 8 179 8.89543 179 10C179 11.1046 180.343 12 182 12Z" fill="#27262C"/>
<path d="M225 4H228V7H225V4Z" fill="#D0232F"/>
<path fill-rule="evenodd" clip-rule="evenodd" d="M227 5H226V6H227V5ZM225 4V7H228V4H225Z" fill="#27262C"/>
<path d="M221 4H226V7H221V4Z" fill="#D0232F"/>
<path fill-rule="evenodd" clip-rule="evenodd" d="M225 5H222V6H225V5ZM221 4V7H226V4H221Z" fill="#27262C"/>
</svg>
