<svg width="234" height="93" viewBox="0 0 234 93" fill="none" xmlns="http://www.w3.org/2000/svg">
<path fill-rule="evenodd" clip-rule="evenodd" d="M231 64C231.552 64 232 63.5523 232 63C232 62.4477 231.552 62 231 62C230.448 62 230 62.4477 230 63C230 63.5523 230.448 64 231 64ZM231 66C232.657 66 234 64.6569 234 63C234 61.3431 232.657 60 231 60C229.343 60 228 61.3431 228 63C228 64.6569 229.343 66 231 66Z" fill="#27262C"/>
<path d="M110 72C110 70.3431 111.343 69 113 69C114.657 69 116 70.3431 116 72C116 73.6569 114.657 75 113 75C111.343 75 110 73.6569 110 72Z" fill="#C4C4C4"/>
<path fill-rule="evenodd" clip-rule="evenodd" d="M111 72C111 73.1046 111.895 74 113 74C114.105 74 115 73.1046 115 72C115 70.8954 114.105 70 113 70C111.895 70 111 70.8954 111 72ZM113 69C111.343 69 110 70.3431 110 72C110 73.6569 111.343 75 113 75C114.657 75 116 73.6569 116 72C116 70.3431 114.657 69 113 69Z" fill="#27262C"/>
<path d="M33 50H186V57H33V50Z" fill="#929292"/>
<path fill-rule="evenodd" clip-rule="evenodd" d="M185 51H34V56H185V51ZM33 50V57H186V50H33Z" fill="#27262C"/>
<path d="M140 71H168V74H140V71Z" fill="#C4C4C4"/>
<path fill-rule="evenodd" clip-rule="evenodd" d="M167 72H141V73H167V72ZM140 71V74H168V71H140Z" fill="#27262C"/>
<path d="M68 51H80V80H68V51Z" fill="#C4C4C4"/>
<path fill-rule="evenodd" clip-rule="evenodd" d="M79 52H69V79H79V52ZM68 51V80H80V51H68Z" fill="#27262C"/>
<path d="M189 24H194V53H189V24Z" fill="#D0232F"/>
<path fill-rule="evenodd" clip-rule="evenodd" d="M193 25H190V52H193V25ZM189 24V53H194V24H189Z" fill="#27262C"/>
<path d="M68 51H80V76H68V51Z" fill="#C4C4C4"/>
<path fill-rule="evenodd" clip-rule="evenodd" d="M79 52H69V75H79V52ZM68 51V76H80V51H68Z" fill="#27262C"/>
<path d="M66 51H82V70H66V51Z" fill="#C4C4C4"/>
<path fill-rule="evenodd" clip-rule="evenodd" d="M81 52H67V69H81V52ZM66 51V70H82V51H66Z" fill="#27262C"/>
<path d="M68 51H80V70H68V51Z" fill="#C4C4C4"/>
<path fill-rule="evenodd" clip-rule="evenodd" d="M79 52H69V69H79V52ZM68 51V70H80V51H68Z" fill="#27262C"/>
<path d="M72 55C72 53.8954 72.8954 53 74 53C75.1046 53 76 53.8954 76 55V66C76 67.1046 75.1046 68 74 68C72.8954 68 72 67.1046 72 66V55Z" fill="#C4C4C4"/>
<path fill-rule="evenodd" clip-rule="evenodd" d="M75 66V55C75 54.4477 74.5523 54 74 54C73.4477 54 73 54.4477 73 55V66C73 66.5523 73.4477 67 74 67C74.5523 67 75 66.5523 75 66ZM74 53C72.8954 53 72 53.8954 72 55V66C72 67.1046 72.8954 68 74 68C75.1046 68 76 67.1046 76 66V55C76 53.8954 75.1046 53 74 53Z" fill="#27262C"/>
<path d="M107 50H151C151 50 145.105 58.8374 143.25 64.5C141.395 70.1626 141.5 79 141.5 79H116.5C116.5 79 116.556 69.9524 115 64.5C113.185 58.1403 107 50 107 50Z" fill="#DEDEDE"/>
<path fill-rule="evenodd" clip-rule="evenodd" d="M151 50C151 50 150.755 50.3673 150.349 51C148.764 53.4712 144.727 59.9917 143.25 64.5C141.678 69.2989 141.514 76.3779 141.5 78.4258C141.498 78.7944 141.5 79 141.5 79H116.5C116.5 79 116.501 78.907 116.5 78.7342C116.495 77.2024 116.399 69.3996 115 64.5C113.569 59.4864 109.422 53.3662 107.731 51C107.277 50.3647 107 50 107 50H151ZM149.163 51H108.956C109.556 51.8568 110.336 53.0092 111.167 54.3342C112.95 57.1801 115.013 60.9038 115.962 64.2255C116.771 67.0618 117.151 70.7778 117.332 73.7335C117.423 75.2218 117.465 76.5371 117.484 77.4807C117.488 77.6691 117.491 77.8427 117.493 78H140.504C140.506 77.8508 140.509 77.6869 140.513 77.5098C140.532 76.5803 140.578 75.2817 140.682 73.8032C140.889 70.8666 141.333 67.141 142.3 64.1887C143.263 61.2475 145.249 57.543 146.957 54.6218C147.797 53.1852 148.581 51.9195 149.163 51Z" fill="#27262C"/>
<path d="M57 56H186V66H57V56Z" fill="#C4C4C4"/>
<path fill-rule="evenodd" clip-rule="evenodd" d="M185 57H58V65H185V57ZM57 56V66H186V56H57Z" fill="#27262C"/>
<path d="M73 74C73 84.4934 64.4934 93 54 93C43.5066 93 35 84.4934 35 74C35 63.5066 43.5066 55 54 55C64.4934 55 73 63.5066 73 74Z" fill="#929292"/>
<path fill-rule="evenodd" clip-rule="evenodd" d="M54 92C63.9411 92 72 83.9411 72 74C72 64.0589 63.9411 56 54 56C44.0589 56 36 64.0589 36 74C36 83.9411 44.0589 92 54 92ZM54 93C64.4934 93 73 84.4934 73 74C73 63.5066 64.4934 55 54 55C43.5066 55 35 63.5066 35 74C35 84.4934 43.5066 93 54 93Z" fill="#27262C"/>
<path d="M64 74C64 79.5228 59.5228 84 54 84C48.4772 84 44 79.5228 44 74C44 68.4772 48.4772 64 54 64C59.5228 64 64 68.4772 64 74Z" fill="#DEDEDE"/>
<path fill-rule="evenodd" clip-rule="evenodd" d="M54 83C58.9706 83 63 78.9706 63 74C63 69.0294 58.9706 65 54 65C49.0294 65 45 69.0294 45 74C45 78.9706 49.0294 83 54 83ZM54 84C59.5228 84 64 79.5228 64 74C64 68.4772 59.5228 64 54 64C48.4772 64 44 68.4772 44 74C44 79.5228 48.4772 84 54 84Z" fill="#27262C"/>
<path fill-rule="evenodd" clip-rule="evenodd" d="M54 81C57.866 81 61 77.866 61 74C61 70.134 57.866 67 54 67C50.134 67 47 70.134 47 74C47 77.866 50.134 81 54 81ZM54 82C58.4183 82 62 78.4183 62 74C62 69.5817 58.4183 66 54 66C49.5817 66 46 69.5817 46 74C46 78.4183 49.5817 82 54 82Z" fill="#27262C"/>
<path d="M227 50H229L231 55.5V64L229 67.5L217 72.5H208L199 76V69L227 62V50Z" fill="#929292"/>
<path fill-rule="evenodd" clip-rule="evenodd" d="M208 72.5H217L229 67.5L231 64V55.5L229 50H227V62L199 69V76L208 72.5ZM200 74.5382L207.812 71.5H216.8L228.301 66.708L230 63.7344V55.6762L228.3 51H228V62.7808L200 69.7808V74.5382Z" fill="#27262C"/>
<path d="M114 74C114 84.4934 105.493 93 95 93C84.5066 93 76 84.4934 76 74C76 63.5066 84.5066 55 95 55C105.493 55 114 63.5066 114 74Z" fill="#929292"/>
<path fill-rule="evenodd" clip-rule="evenodd" d="M95 92C104.941 92 113 83.9411 113 74C113 64.0589 104.941 56 95 56C85.0589 56 77 64.0589 77 74C77 83.9411 85.0589 92 95 92ZM95 93C105.493 93 114 84.4934 114 74C114 63.5066 105.493 55 95 55C84.5066 55 76 63.5066 76 74C76 84.4934 84.5066 93 95 93Z" fill="#27262C"/>
<path d="M105 74C105 79.5228 100.523 84 95 84C89.4772 84 85 79.5228 85 74C85 68.4772 89.4772 64 95 64C100.523 64 105 68.4772 105 74Z" fill="#DEDEDE"/>
<path fill-rule="evenodd" clip-rule="evenodd" d="M95 83C99.9706 83 104 78.9706 104 74C104 69.0294 99.9706 65 95 65C90.0294 65 86 69.0294 86 74C86 78.9706 90.0294 83 95 83ZM95 84C100.523 84 105 79.5228 105 74C105 68.4772 100.523 64 95 64C89.4772 64 85 68.4772 85 74C85 79.5228 89.4772 84 95 84Z" fill="#27262C"/>
<path fill-rule="evenodd" clip-rule="evenodd" d="M95 81C98.866 81 102 77.866 102 74C102 70.134 98.866 67 95 67C91.134 67 88 70.134 88 74C88 77.866 91.134 81 95 81ZM95 82C99.4183 82 103 78.4183 103 74C103 69.5817 99.4183 66 95 66C90.5817 66 87 69.5817 87 74C87 78.4183 90.5817 82 95 82Z" fill="#27262C"/>
<path d="M182 74C182 84.4934 173.493 93 163 93C152.507 93 144 84.4934 144 74C144 63.5066 152.507 55 163 55C173.493 55 182 63.5066 182 74Z" fill="#929292"/>
<path fill-rule="evenodd" clip-rule="evenodd" d="M163 92C172.941 92 181 83.9411 181 74C181 64.0589 172.941 56 163 56C153.059 56 145 64.0589 145 74C145 83.9411 153.059 92 163 92ZM163 93C173.493 93 182 84.4934 182 74C182 63.5066 173.493 55 163 55C152.507 55 144 63.5066 144 74C144 84.4934 152.507 93 163 93Z" fill="#27262C"/>
<path d="M173 74C173 79.5228 168.523 84 163 84C157.477 84 153 79.5228 153 74C153 68.4772 157.477 64 163 64C168.523 64 173 68.4772 173 74Z" fill="#DEDEDE"/>
<path fill-rule="evenodd" clip-rule="evenodd" d="M163 83C167.971 83 172 78.9706 172 74C172 69.0294 167.971 65 163 65C158.029 65 154 69.0294 154 74C154 78.9706 158.029 83 163 83ZM163 84C168.523 84 173 79.5228 173 74C173 68.4772 168.523 64 163 64C157.477 64 153 68.4772 153 74C153 79.5228 157.477 84 163 84Z" fill="#27262C"/>
<path fill-rule="evenodd" clip-rule="evenodd" d="M163 81C166.866 81 170 77.866 170 74C170 70.134 166.866 67 163 67C159.134 67 156 70.134 156 74C156 77.866 159.134 81 163 81ZM163 82C167.418 82 171 78.4183 171 74C171 69.5817 167.418 66 163 66C158.582 66 155 69.5817 155 74C155 78.4183 158.582 82 163 82Z" fill="#27262C"/>
<path d="M22 47H34V76H22V47Z" fill="#DEDEDE"/>
<path fill-rule="evenodd" clip-rule="evenodd" d="M33 48H23V75H33V48ZM22 47V76H34V47H22Z" fill="#27262C"/>
<path d="M24 48H187V51H24V48Z" fill="#C4C4C4"/>
<path fill-rule="evenodd" clip-rule="evenodd" d="M186 49H25V50H186V49ZM24 48V51H187V48H24Z" fill="#27262C"/>
<path d="M24 46H40V49H24V46Z" fill="#C4C4C4"/>
<path fill-rule="evenodd" clip-rule="evenodd" d="M39 47H25V48H39V47ZM24 46V49H40V46H24Z" fill="#27262C"/>
<path d="M39 46H53V49H39V46Z" fill="#C4C4C4"/>
<path fill-rule="evenodd" clip-rule="evenodd" d="M52 47H40V48H52V47ZM39 46V49H53V46H39Z" fill="#27262C"/>
<path d="M13 75.5H17.5L22 79V80H9V79L13 75.5Z" fill="#C4C4C4"/>
<path fill-rule="evenodd" clip-rule="evenodd" d="M13.3757 76.5L10.5186 79H20.3712L17.1569 76.5H13.3757ZM13 75.5H17.5L22 79V80H9V79L13 75.5Z" fill="#27262C"/>
<path d="M52 46H62V49H52V46Z" fill="#C4C4C4"/>
<path fill-rule="evenodd" clip-rule="evenodd" d="M61 47H53V48H61V47ZM52 46V49H62V46H52Z" fill="#27262C"/>
<path d="M24 53H27V54H24V53Z" fill="#27262C"/>
<path d="M24 71H27V72H24V71Z" fill="#27262C"/>
<path d="M33 50H45C45 50 40.0786 54.4192 38 57C35.6891 59.8693 33 65 33 65V50Z" fill="#C4C4C4"/>
<path fill-rule="evenodd" clip-rule="evenodd" d="M34 63.177C33.3897 64.2564 33 65 33 65V50H45C45 50 44.5685 50.3875 43.907 51C42.3347 52.456 39.4631 55.1834 38 57C36.5689 58.7769 34.9927 61.4212 34 63.177ZM34 61.1812C34.9338 59.6073 36.11 57.7524 37.2212 56.3727C38.3056 55.0263 40.0988 53.2363 41.5877 51.8101C41.8851 51.5252 42.1722 51.2532 42.4413 51H34V61.1812Z" fill="#27262C"/>
<path d="M12 16H26V21L51 45H33.5L12 25V16Z" fill="#D0232F"/>
<path fill-rule="evenodd" clip-rule="evenodd" d="M26 21V16H12V25L33.5 45H51L26 21ZM48.5144 44L25 21.4262V17H13V24.5645L33.8932 44H48.5144Z" fill="#27262C"/>
<path fill-rule="evenodd" clip-rule="evenodd" d="M36.1621 44.8685L12.1621 22.8685L12.8378 22.1313L36.8378 44.1313L36.1621 44.8685Z" fill="#27262C"/>
<path d="M186 50H174C174 50 178.921 54.4192 181 57C183.311 59.8693 186 65 186 65V50Z" fill="#C4C4C4"/>
<path fill-rule="evenodd" clip-rule="evenodd" d="M185 63.177C185.61 64.2564 186 65 186 65V50H174C174 50 174.432 50.3875 175.093 51C176.665 52.456 179.537 55.1834 181 57C182.431 58.7769 184.007 61.4212 185 63.177ZM185 61.1812C184.066 59.6073 182.89 57.7524 181.779 56.3727C180.694 55.0263 178.901 53.2363 177.412 51.8101C177.115 51.5252 176.828 51.2532 176.559 51H185V61.1812Z" fill="#27262C"/>
<path d="M15 47H23V56H15V47Z" fill="#929292"/>
<path fill-rule="evenodd" clip-rule="evenodd" d="M22 48H16V55H22V48ZM15 47V56H23V47H15Z" fill="#27262C"/>
<path d="M10 47H15V50H10V47Z" fill="#929292"/>
<path fill-rule="evenodd" clip-rule="evenodd" d="M14 48H11V49H14V48ZM10 47V50H15V47H10Z" fill="#27262C"/>
<path d="M10 58C10 59.1046 9.10457 60 8 60C6.89543 60 6 59.1046 6 58C6 56.8954 6.89543 56 8 56C9.10457 56 10 56.8954 10 58Z" fill="#929292"/>
<path fill-rule="evenodd" clip-rule="evenodd" d="M8 59C8.55228 59 9 58.5523 9 58C9 57.4477 8.55228 57 8 57C7.44772 57 7 57.4477 7 58C7 58.5523 7.44772 59 8 59ZM8 60C9.10457 60 10 59.1046 10 58C10 56.8954 9.10457 56 8 56C6.89543 56 6 56.8954 6 58C6 59.1046 6.89543 60 8 60Z" fill="#27262C"/>
<path d="M10 49C10 50.1046 9.10457 51 8 51C6.89543 51 6 50.1046 6 49C6 47.8954 6.89543 47 8 47C9.10457 47 10 47.8954 10 49Z" fill="#929292"/>
<path fill-rule="evenodd" clip-rule="evenodd" d="M8 50C8.55228 50 9 49.5523 9 49C9 48.4477 8.55228 48 8 48C7.44772 48 7 48.4477 7 49C7 49.5523 7.44772 50 8 50ZM8 51C9.10457 51 10 50.1046 10 49C10 47.8954 9.10457 47 8 47C6.89543 47 6 47.8954 6 49C6 50.1046 6.89543 51 8 51Z" fill="#27262C"/>
<path d="M10 49H15V52H10V49Z" fill="#929292"/>
<path fill-rule="evenodd" clip-rule="evenodd" d="M14 50H11V51H14V50ZM10 49V52H15V49H10Z" fill="#27262C"/>
<path d="M10 55H15V58H10V55Z" fill="#929292"/>
<path fill-rule="evenodd" clip-rule="evenodd" d="M14 56H11V57H14V56ZM10 55V58H15V55H10Z" fill="#27262C"/>
<path d="M11 75H14V78H11V75Z" fill="#929292"/>
<path fill-rule="evenodd" clip-rule="evenodd" d="M13 76H12V77H13V76ZM11 75V78H14V75H11Z" fill="#27262C"/>
<path d="M14 75H18V80H14V75Z" fill="#929292"/>
<path fill-rule="evenodd" clip-rule="evenodd" d="M17 76H15V79H17V76ZM14 75V80H18V75H14Z" fill="#27262C"/>
<path fill-rule="evenodd" clip-rule="evenodd" d="M13 74H12V75H13V74Z" fill="#27262C"/>
<path d="M19 74H20V76H19V74Z" fill="#27262C"/>
<path d="M18 76L18 75L20 75L20 76L18 76Z" fill="#27262C"/>
<path d="M10 51H15V56H10V51Z" fill="#DEDEDE"/>
<path fill-rule="evenodd" clip-rule="evenodd" d="M14 52H11V55H14V52ZM10 51V56H15V51H10Z" fill="#27262C"/>
<path d="M8 47H11V56H8V47Z" fill="#DEDEDE"/>
<path fill-rule="evenodd" clip-rule="evenodd" d="M10 48H9V55H10V48ZM8 47V56H11V47H8Z" fill="#27262C"/>
<path d="M8 65H11V73H8V65Z" fill="#DEDEDE"/>
<path fill-rule="evenodd" clip-rule="evenodd" d="M10 66H9V72H10V66ZM8 65V73H11V65H8Z" fill="#27262C"/>
<path d="M8 55H11V66H8V55Z" fill="#929292"/>
<path fill-rule="evenodd" clip-rule="evenodd" d="M10 56H9V65H10V56ZM8 55V66H11V55H8Z" fill="#27262C"/>
<path d="M10 57H15V66H10V57Z" fill="#DEDEDE"/>
<path fill-rule="evenodd" clip-rule="evenodd" d="M14 58H11V65H14V58ZM10 57V66H15V57H10Z" fill="#27262C"/>
<path d="M10 65H15V74H10V65Z" fill="#DEDEDE"/>
<path fill-rule="evenodd" clip-rule="evenodd" d="M14 66H11V73H14V66ZM10 65V74H15V65H10Z" fill="#27262C"/>
<path d="M17 69H22V74H17V69Z" fill="#DEDEDE"/>
<path fill-rule="evenodd" clip-rule="evenodd" d="M21 70H18V73H21V70ZM17 69V74H22V69H17Z" fill="#27262C"/>
<path d="M15 55H23V64H15V55Z" fill="#929292"/>
<path fill-rule="evenodd" clip-rule="evenodd" d="M22 56H16V63H22V56ZM15 55V64H23V55H15Z" fill="#27262C"/>
<path d="M15 63H23V66H15V63Z" fill="#929292"/>
<path fill-rule="evenodd" clip-rule="evenodd" d="M22 64H16V65H22V64ZM15 63V66H23V63H15Z" fill="#27262C"/>
<path d="M16 66H23V70H16V66Z" fill="#929292"/>
<path fill-rule="evenodd" clip-rule="evenodd" d="M22 67H17V69H22V67ZM16 66V70H23V66H16Z" fill="#27262C"/>
<path d="M121 50H135V79H121V50Z" fill="#C4C4C4"/>
<path fill-rule="evenodd" clip-rule="evenodd" d="M134 51H122V78H134V51ZM121 50V79H135V50H121Z" fill="#27262C"/>
<path d="M121 54H135V57H121V54Z" fill="#C4C4C4"/>
<path fill-rule="evenodd" clip-rule="evenodd" d="M134 55H122V56H134V55ZM121 54V57H135V54H121Z" fill="#27262C"/>
<path d="M121 59H135V62H121V59Z" fill="#C4C4C4"/>
<path fill-rule="evenodd" clip-rule="evenodd" d="M134 60H122V61H134V60ZM121 59V62H135V59H121Z" fill="#27262C"/>
<path d="M121 64H135V67H121V64Z" fill="#C4C4C4"/>
<path fill-rule="evenodd" clip-rule="evenodd" d="M134 65H122V66H134V65ZM121 64V67H135V64H121Z" fill="#27262C"/>
<path d="M121 69H135V72H121V69Z" fill="#C4C4C4"/>
<path fill-rule="evenodd" clip-rule="evenodd" d="M134 70H122V71H134V70ZM121 69V72H135V69H121Z" fill="#27262C"/>
<path d="M9 79H22V82H9V79Z" fill="#C4C4C4"/>
<path fill-rule="evenodd" clip-rule="evenodd" d="M21 80H10V81H21V80ZM9 79V82H22V79H9Z" fill="#27262C"/>
<path d="M23 76H24V81H23V76Z" fill="#27262C"/>
<path d="M22 79H23V80H22V79Z" fill="#27262C"/>
<path d="M162.5 24H187V36H159C159 36 159.254 31.9926 160 29.5385C160.686 27.2825 162.5 24 162.5 24Z" fill="#D0232F"/>
<path fill-rule="evenodd" clip-rule="evenodd" d="M163.098 25C163.096 25.0048 163.093 25.0096 163.091 25.0144C162.913 25.3507 162.67 25.8223 162.406 26.3626C161.87 27.457 161.275 28.782 160.957 29.8294C160.61 30.968 160.368 32.5106 160.213 33.8084C160.16 34.2506 160.118 34.6572 160.086 35H186V25H163.098ZM159 36C159 36 159.025 35.6105 159.081 35C159.206 33.6523 159.486 31.2275 160 29.5385C160.686 27.2825 162.5 24 162.5 24H187V36H159Z" fill="#27262C"/>
<path d="M188 65H192V72H188V65Z" fill="#DEDEDE"/>
<path fill-rule="evenodd" clip-rule="evenodd" d="M191 66H189V71H191V66ZM188 65V72H192V65H188Z" fill="#27262C"/>
<path d="M199 63H226L216 70H199V63Z" fill="#DEDEDE"/>
<path fill-rule="evenodd" clip-rule="evenodd" d="M222.828 64H200V69H215.685L222.828 64ZM199 63V70H216L226 63H199Z" fill="#27262C"/>
<path d="M204 78H214V80H204V78Z" fill="#27262C"/>
<path d="M204 74H205V78H204V74Z" fill="#27262C"/>
<path d="M213 72H214V78H213V72Z" fill="#27262C"/>
<path fill-rule="evenodd" clip-rule="evenodd" d="M219.72 24H193V64H229.997C229.997 64 230.209 47.8933 226.914 38.359C224.866 32.4321 219.72 24 219.72 24ZM217.444 28H198V37.5L208.185 47H223V38.45L217.444 28Z" fill="#D0232F"/>
<path fill-rule="evenodd" clip-rule="evenodd" d="M197 27H218.045L224 38.2007V48H207.791L197 37.9347V27ZM219.154 25H194V63H228.999C228.997 62.5714 228.992 62.0149 228.979 61.3534C228.948 59.7068 228.872 57.4125 228.693 54.8235C228.336 49.6199 227.571 43.3208 225.969 38.6856C224.973 35.8034 223.208 32.2733 221.67 29.433C220.905 28.0197 220.203 26.7898 219.692 25.9135C219.475 25.5401 219.292 25.2312 219.154 25ZM219.72 24H193V64H229.997C229.997 64 230.209 47.8933 226.914 38.359C224.866 32.4321 219.72 24 219.72 24ZM198 37.5V28H217.444L223 38.45V47H208.185L198 37.5Z" fill="#27262C"/>
<path d="M4 68H7V73H4V68Z" fill="#C4C4C4"/>
<path fill-rule="evenodd" clip-rule="evenodd" d="M6 69H5V72H6V69ZM4 68V73H7V68H4Z" fill="#27262C"/>
<path d="M6 68H9V71H6V68Z" fill="#C4C4C4"/>
<path fill-rule="evenodd" clip-rule="evenodd" d="M8 69H7V70H8V69ZM6 68V71H9V68H6Z" fill="#27262C"/>
<path d="M7 70H8V77H7V70Z" fill="#27262C"/>
<path d="M166 36H187V49H166V36Z" fill="#D0232F"/>
<path fill-rule="evenodd" clip-rule="evenodd" d="M186 37H167V48H186V37ZM166 36V49H187V36H166Z" fill="#27262C"/>
<path d="M193 45.5L202 52V64H199L193 52V45.5Z" fill="#D0232F"/>
<path fill-rule="evenodd" clip-rule="evenodd" d="M193 45.5V52L199 64H202V52L193 45.5ZM194 47.4558V51.7639L199.618 63H201V52.5113L194 47.4558Z" fill="#27262C"/>
<path d="M166 34H187V37H166V34Z" fill="#D0232F"/>
<path fill-rule="evenodd" clip-rule="evenodd" d="M186 35H167V36H186V35ZM166 34V37H187V34H166Z" fill="#27262C"/>
<path d="M144 31H160V36H144V31Z" fill="#D0232F"/>
<path fill-rule="evenodd" clip-rule="evenodd" d="M159 32H145V35H159V32ZM144 31V36H160V31H144Z" fill="#27262C"/>
<path d="M6 76H8V77H6V76Z" fill="#27262C"/>
<path d="M142.5 35H167V49H139C139 49 139.254 44.3247 140 41.4615C140.686 38.8296 142.5 35 142.5 35Z" fill="#D0232F"/>
<path d="M157.924 39.0151C157.764 39.0341 157.563 39.0791 157.415 39.1308C156.503 39.4426 155.863 40.2433 155.755 41.1991C155.747 41.2767 155.742 42.1863 155.742 43.6595V45.9988H156.647H157.553V44.9912V43.9836H158.581H159.609V43.0781V42.1727H158.581H157.553V41.7601C157.553 41.3108 157.559 41.2522 157.631 41.1188C157.679 41.0303 157.799 40.9104 157.887 40.8628C158.035 40.7838 158.032 40.7838 159.06 40.7838H160.003V39.892V39.0001L159.014 39.0015C158.468 39.0028 157.979 39.0083 157.924 39.0151Z" fill="white"/>
<path d="M147 39.3336C147 39.5024 147.004 39.6399 147.011 39.6399C147.016 39.6386 147.06 39.6304 147.109 39.6195C147.242 39.5895 147.528 39.5787 147.694 39.5977C147.882 39.6195 148.106 39.6685 148.289 39.7284C148.486 39.7911 148.664 39.8169 148.906 39.8169C149.279 39.8169 149.716 39.7448 150.144 39.6113C150.215 39.5895 150.275 39.5746 150.277 39.5773C150.281 39.58 150.277 39.6154 150.269 39.6563C150.234 39.851 150.14 39.998 149.959 40.1437C149.643 40.3983 149.116 40.574 148.396 40.6652L148.151 40.6965L148.155 40.7483C148.174 40.962 148.329 41.1568 148.661 41.3814C148.905 41.5462 149.003 41.6265 149.161 41.7872C149.465 42.0949 149.659 42.4789 149.756 42.965C149.804 43.2033 149.823 43.432 149.816 43.7411L149.812 44.0107L149.88 44.0393C149.918 44.0556 149.989 44.072 150.038 44.076C150.183 44.0856 150.237 44.0665 150.676 43.8296C150.927 43.6962 151.167 43.6403 151.379 43.6676C151.496 43.6839 151.531 43.6948 151.496 43.7071C151.436 43.7288 151.266 43.8623 151.172 43.9589C151.018 44.1196 150.908 44.3225 150.875 44.5036C150.868 44.5417 150.848 44.5689 150.788 44.6207C150.619 44.765 150.437 44.8603 150.216 44.9189C150.096 44.9516 150.06 44.9543 149.825 44.9556C149.594 44.9556 149.549 44.9529 149.396 44.9189C149.049 44.844 148.788 44.8821 148.409 45.0659C148.073 45.228 147.592 45.5847 147.279 45.9033L147.184 46L149.008 45.9959L150.833 45.9905L150.99 45.9605C151.875 45.7849 152.506 45.2035 152.681 44.4028C152.707 44.2844 152.711 44.2217 152.711 44.0039C152.711 43.7697 152.707 43.7302 152.672 43.5818C152.588 43.2182 152.437 42.9268 152.215 42.7022C152.11 42.596 151.895 42.4448 151.811 42.4162C151.786 42.4081 151.766 42.3972 151.766 42.3917C151.766 42.3863 151.793 42.3618 151.827 42.3373C152.09 42.1494 152.288 41.8348 152.388 41.4522C152.423 41.3188 152.426 41.2888 152.425 41.0492C152.425 40.7701 152.406 40.6448 152.331 40.4201C152.076 39.6644 151.386 39.1361 150.524 39.0422C150.437 39.0326 149.805 39.0272 148.695 39.0272H147V39.3336Z" fill="white"/>
<path d="M153.331 42.5131V45.9988H154.244H155.156V42.5131V39.0273H154.244H153.331V42.5131Z" fill="white"/>
<path fill-rule="evenodd" clip-rule="evenodd" d="M143.14 36C143.133 36.0168 143.125 36.0338 143.117 36.0512C142.939 36.4451 142.695 36.9974 142.43 37.6304C141.894 38.9085 141.292 40.4698 140.968 41.7138C140.615 43.0675 140.371 44.8887 140.215 46.4066C140.153 47.0121 140.105 47.5608 140.071 48H166V36H143.14ZM139 49C139 49 139.021 48.6157 139.068 48C139.186 46.4681 139.468 43.5038 140 41.4615C140.686 38.8296 142.5 35 142.5 35H167V49H139Z" fill="#27262C"/>
<path fill-rule="evenodd" clip-rule="evenodd" d="M219.154 25H194V63H228.999C228.997 62.5714 228.992 62.0149 228.979 61.3534C228.948 59.7068 228.872 57.4125 228.693 54.8235C228.336 49.6199 227.571 43.3208 225.969 38.6856C224.973 35.8034 223.208 32.2733 221.67 29.433C220.905 28.0197 220.203 26.7898 219.692 25.9135C219.475 25.5401 219.292 25.2312 219.154 25ZM219.72 24H193V64H229.997C229.997 64 230.209 47.8933 226.914 38.359C224.866 32.4321 219.72 24 219.72 24Z" fill="#27262C"/>
<path d="M186 49H192.533L200 62V77H186V49Z" fill="#C4C4C4"/>
<path fill-rule="evenodd" clip-rule="evenodd" d="M191.954 50H187V76H199V62.2667L191.954 50ZM192.533 49H186V77H200V62L192.533 49Z" fill="#27262C"/>
<path d="M186 48H189V58H186V48Z" fill="#C4C4C4"/>
<path fill-rule="evenodd" clip-rule="evenodd" d="M188 49H187V57H188V49ZM186 48V58H189V48H186Z" fill="#27262C"/>
<path d="M188 52H192V55H188V52Z" fill="#929292"/>
<path fill-rule="evenodd" clip-rule="evenodd" d="M191 53H189V54H191V53ZM188 52V55H192V52H188Z" fill="#27262C"/>
<path d="M188 54H192V66H188V54Z" fill="#DEDEDE"/>
<path fill-rule="evenodd" clip-rule="evenodd" d="M191 55H189V65H191V55ZM188 54V66H192V54H188Z" fill="#27262C"/>
<path d="M186 76.5H196L200 83H186V76.5Z" fill="#DEDEDE"/>
<path fill-rule="evenodd" clip-rule="evenodd" d="M195.441 77.5H187V82H198.21L195.441 77.5ZM196 76.5H186V83H200L196 76.5Z" fill="#27262C"/>
<path d="M192 65H195V76H192V65Z" fill="#C4C4C4"/>
<path fill-rule="evenodd" clip-rule="evenodd" d="M194 66H193V75H194V66ZM192 65V76H195V65H192Z" fill="#27262C"/>
<path d="M192 58H195V66H192V58Z" fill="#C4C4C4"/>
<path fill-rule="evenodd" clip-rule="evenodd" d="M194 59H193V65H194V59ZM192 58V66H195V58H192Z" fill="#27262C"/>
<path d="M191 76H196V81H191V76Z" fill="#C4C4C4"/>
<path fill-rule="evenodd" clip-rule="evenodd" d="M195 77H192V80H195V77ZM191 76V81H196V76H191Z" fill="#27262C"/>
<path d="M219 39H220V51H219V39Z" fill="#27262C"/>
<path d="M217 30H219C220.105 30 221 30.8954 221 32V38C221 39.1046 220.105 40 219 40H217V30Z" fill="#C4C4C4"/>
<path fill-rule="evenodd" clip-rule="evenodd" d="M219 31H218V39H219C219.552 39 220 38.5523 220 38V32C220 31.4477 219.552 31 219 31ZM217 30V40H219C220.105 40 221 39.1046 221 38V32C221 30.8954 220.105 30 219 30H217Z" fill="#27262C"/>
<path d="M221 51.5C221 52.3284 220.328 53 219.5 53C218.672 53 218 52.3284 218 51.5C218 50.6716 218.672 50 219.5 50C220.328 50 221 50.6716 221 51.5Z" fill="#C4C4C4"/>
<path fill-rule="evenodd" clip-rule="evenodd" d="M219.5 52C219.776 52 220 51.7761 220 51.5C220 51.2239 219.776 51 219.5 51C219.224 51 219 51.2239 219 51.5C219 51.7761 219.224 52 219.5 52ZM219.5 53C220.328 53 221 52.3284 221 51.5C221 50.6716 220.328 50 219.5 50C218.672 50 218 50.6716 218 51.5C218 52.3284 218.672 53 219.5 53Z" fill="#27262C"/>
<path d="M214.388 46.5361C213.496 45.5746 213 44.3115 213 43C214.402 43 215.741 43.5841 216.695 44.6121L217.24 45.1992L215.04 47.2396L214.388 46.5361Z" fill="#DEDEDE"/>
<path fill-rule="evenodd" clip-rule="evenodd" d="M213 43.0009C213 43.0011 213 43.0006 213 43.0009C213 43.339 213.033 43.6739 213.097 44.0013C213.279 44.9303 213.713 45.7985 214.36 46.5065C214.369 46.5164 214.378 46.5263 214.388 46.5362L215.04 47.2397L217.239 45.1993L216.695 44.6122C216.65 44.5635 216.603 44.5157 216.556 44.4689C215.853 43.7683 214.963 43.2954 214.001 43.1005C213.674 43.0343 213.339 43.0002 213.001 43.0001C213 43.0001 213 43.0009 213 43.0009ZM214.167 44.1722C214.344 44.7823 214.659 45.3491 215.093 45.8264L215.823 45.1497C215.354 44.692 214.785 44.3587 214.167 44.1722Z" fill="#27262C"/>
<path d="M203 56H204V61H203V56Z" fill="#27262C"/>
<path d="M208.476 44.9301C208.38 44.6713 208.512 44.3835 208.771 44.2873L219.843 40.1741C220.101 40.0779 220.389 40.2098 220.485 40.4687C220.582 40.7275 220.45 41.0153 220.191 41.1115L209.119 45.2247C208.86 45.3209 208.573 45.189 208.476 44.9301Z" fill="#27262C"/>
<path d="M215 46.5C215 45.6716 215.672 45 216.5 45C217.328 45 218 45.6716 218 46.5V48H215V46.5Z" fill="#C4C4C4"/>
<path fill-rule="evenodd" clip-rule="evenodd" d="M217 47V46.5C217 46.2239 216.776 46 216.5 46C216.224 46 216 46.2239 216 46.5V47H217ZM216.5 45C215.672 45 215 45.6716 215 46.5V48H218V46.5C218 45.6716 217.328 45 216.5 45Z" fill="#27262C"/>
<path d="M212 43.5L214 43V46L211 44L212 43.5Z" fill="#27262C"/>
<path d="M122 55H134V57H122V55Z" fill="#F1F1F1"/>
<path d="M122 60H134V62H122V60Z" fill="#F1F1F1"/>
<path d="M122 65H134V67H122V65Z" fill="#F1F1F1"/>
<path d="M122 70H134V72H122V70Z" fill="#F1F1F1"/>
<path d="M74.5001 0H112C112 0 118.886 10.8587 120.5 20C121.994 28.4628 120.5 44 120.5 44H71.0001V14.5C71.0001 14.5 70.9535 8.87795 72.0001 5.5C72.6983 3.24632 74.5001 0 74.5001 0Z" fill="#D0232F"/>
<path fill-rule="evenodd" clip-rule="evenodd" d="M71.0001 14.5V44H120.5C120.5 44 121.994 28.4628 120.5 20C118.886 10.8587 112 0 112 0H74.5001C74.5001 0 72.6983 3.24632 72.0001 5.5C70.9535 8.87795 71.0001 14.5 71.0001 14.5ZM75.0969 1C75.0951 1.00347 75.0932 1.00696 75.0914 1.01046C74.9151 1.34336 74.6727 1.81048 74.4092 2.34622C73.8757 3.43104 73.28 4.74779 72.9553 5.79594C72.4688 7.36626 72.2238 9.51757 72.1055 11.3318C72.0471 12.2276 72.0207 13.0207 72.0089 13.5894C72.0031 13.8736 72.0008 14.1011 72.0001 14.2566C71.9997 14.3344 71.9997 14.3942 71.9998 14.434L72 14.4785L72 14.4891L72.0001 14.5L72.0001 43H119.585C119.62 42.5806 119.664 42.0276 119.713 41.3668C119.829 39.7866 119.968 37.5922 120.061 35.1358C120.248 30.1971 120.242 24.2909 119.515 20.1739C118.734 15.7468 116.66 10.8498 114.75 7.01823C113.799 5.11167 112.898 3.487 112.235 2.33983C111.904 1.76649 111.633 1.31307 111.445 1.00407C111.444 1.00271 111.443 1.00135 111.442 1H75.0969Z" fill="#27262C"/>
<path fill-rule="evenodd" clip-rule="evenodd" d="M91.5 2.5H74V1.5H91.5V2.5ZM93.5 1.5H112.5V2.5H93.5V1.5Z" fill="#27262C"/>
<path fill-rule="evenodd" clip-rule="evenodd" d="M113.013 9.99992L93.5128 10.4999L93.4872 9.50024L112.987 9.00024L113.013 9.99992ZM91.5143 10.9999L74.0143 11.4999L73.9857 10.5003L91.4857 10.0003L91.5143 10.9999Z" fill="#27262C"/>
<path fill-rule="evenodd" clip-rule="evenodd" d="M74.8596 5H73V4H91.5V5H75.8904L75.6404 6H91.5V7H75.3904L73.485 14.6213L72.5149 14.3787L74.8596 5Z" fill="#27262C"/>
<path fill-rule="evenodd" clip-rule="evenodd" d="M110.261 6H93.5V5H110.732L110.882 5.17703L110.5 5.5C110.882 5.17703 110.882 5.17685 110.882 5.17703L110.882 5.17785L110.884 5.17927L110.887 5.18389L110.901 5.20026C110.913 5.21434 110.929 5.23474 110.951 5.26138C110.994 5.31468 111.056 5.39299 111.135 5.49583C111.294 5.70151 111.52 6.00538 111.794 6.40354C112.344 7.19975 113.089 8.37367 113.881 9.89403C115.464 12.9343 117.236 17.3645 117.995 22.9324C118.756 28.5073 118.122 33.3212 117.299 36.742C116.887 38.4529 116.427 39.8171 116.069 40.7563C115.89 41.226 115.736 41.5896 115.626 41.8373C115.571 41.9612 115.527 42.0561 115.497 42.1209C115.481 42.1533 115.469 42.1782 115.461 42.1953L115.451 42.2153L115.449 42.2209L115.448 42.2226C115.448 42.2228 115.447 42.2236 115 42L115.447 42.2236L115.309 42.5H93.5V41.5H114.682C114.691 41.4786 114.701 41.456 114.712 41.4322C114.815 41.1995 114.962 40.8522 115.134 40.4C115.479 39.4954 115.926 38.1721 116.326 36.508C117.128 33.1788 117.744 28.4927 117.005 23.0676C116.264 17.6355 114.536 13.3157 112.994 10.356C112.223 8.87633 111.5 7.73775 110.971 6.97146C110.707 6.58837 110.491 6.29849 110.343 6.10573C110.313 6.06644 110.285 6.03118 110.261 6Z" fill="#27262C"/>
<path d="M25 14H72V43.7508H62V45H49.5L25 21.5V14Z" fill="#D0232F"/>
<path fill-rule="evenodd" clip-rule="evenodd" d="M61 42.7508H71V15H26V21.0735L49.9021 44H61V42.7508ZM49.5 45L25 21.5V14H72V43.7508H62V45H49.5Z" fill="#27262C"/>
<path fill-rule="evenodd" clip-rule="evenodd" d="M76.3363 15H71.5V14H76.6637L91.7957 25.0968L91.2043 25.9032L76.3363 15ZM93.1464 27.3536L93.8536 26.6464L95.2071 28H117.5V29H94.7929L93.1464 27.3536Z" fill="#27262C"/>
<path d="M113 31H116V36H113V31Z" fill="#D0232F"/>
<path fill-rule="evenodd" clip-rule="evenodd" d="M115 32H114V35H115V32ZM113 31V36H116V31H113Z" fill="#27262C"/>
<path d="M71 33H92V44H71V33Z" fill="#D0232F"/>
<path fill-rule="evenodd" clip-rule="evenodd" d="M91 34H72V43H91V34ZM71 33V44H92V33H71Z" fill="#27262C"/>
<path d="M91 0H94V44H91V0Z" fill="#D0232F"/>
<path fill-rule="evenodd" clip-rule="evenodd" d="M93 1H92V43H93V1ZM91 0V44H94V0H91Z" fill="#27262C"/>
<path d="M97 27C97 25.8954 97.8954 25 99 25H103V29H97V27Z" fill="#929292"/>
<path fill-rule="evenodd" clip-rule="evenodd" d="M102 26H99C98.4477 26 98 26.4477 98 27V28H102V26ZM99 25C97.8954 25 97 25.8954 97 27V29H103V25H99Z" fill="#27262C"/>
<path d="M102.141 21.299C102.556 20.5816 103.473 20.3358 104.19 20.75C104.908 21.1642 105.154 22.0816 104.739 22.799L103.348 25.2089C102.934 25.9263 102.017 26.1721 101.299 25.7579C100.582 25.3437 100.336 24.4263 100.75 23.7089L102.141 21.299Z" fill="#929292"/>
<path fill-rule="evenodd" clip-rule="evenodd" d="M102.482 24.7089L103.873 22.299C104.011 22.0599 103.93 21.7541 103.69 21.616C103.451 21.478 103.145 21.5599 103.007 21.799L101.616 24.2089C101.478 24.448 101.56 24.7538 101.799 24.8919C102.038 25.03 102.344 24.948 102.482 24.7089ZM104.19 20.75C103.473 20.3358 102.556 20.5816 102.141 21.299L100.75 23.7089C100.336 24.4263 100.582 25.3437 101.299 25.7579C102.017 26.1721 102.934 25.9263 103.348 25.2089L104.739 22.799C105.154 22.0816 104.908 21.1642 104.19 20.75Z" fill="#27262C"/>
<path d="M83 17.7967C83 16.8044 83.8044 16 84.7967 16C85.5248 16 86.1809 16.4394 86.4581 17.1126L89.5 24.5L83.9153 20.2041C83.3382 19.7601 83 19.0733 83 18.3452V17.7967Z" fill="#929292"/>
<path fill-rule="evenodd" clip-rule="evenodd" d="M87.1569 21.436L85.5335 17.4934C85.4105 17.1948 85.1196 17 84.7967 17C84.3567 17 84 17.3567 84 17.7967V18.3452C84 18.7629 84.194 19.1568 84.525 19.4115L87.1569 21.436ZM86.4581 17.1126C86.1809 16.4394 85.5248 16 84.7967 16C83.8044 16 83 16.8044 83 17.7967V18.3452C83 19.0733 83.3382 19.7601 83.9153 20.2041L89.5 24.5L86.4581 17.1126Z" fill="#27262C"/>
<path d="M83 13.5C83 12.6716 83.6716 12 84.5 12C85.3284 12 86 12.6716 86 13.5V16.2826C86 17.1111 85.3284 17.7826 84.5 17.7826C83.6716 17.7826 83 17.1111 83 16.2826V13.5Z" fill="#929292"/>
<path fill-rule="evenodd" clip-rule="evenodd" d="M85 16.2826V13.5C85 13.2239 84.7761 13 84.5 13C84.2239 13 84 13.2239 84 13.5V16.2826C84 16.5588 84.2239 16.7826 84.5 16.7826C84.7761 16.7826 85 16.5588 85 16.2826ZM84.5 12C83.6716 12 83 12.6716 83 13.5V16.2826C83 17.1111 83.6716 17.7826 84.5 17.7826C85.3284 17.7826 86 17.1111 86 16.2826V13.5C86 12.6716 85.3284 12 84.5 12Z" fill="#27262C"/>
<path d="M88 21H92V27L88 23.5V21Z" fill="#929292"/>
<path fill-rule="evenodd" clip-rule="evenodd" d="M91 22H89V23.0462L91 24.7962V22ZM92 27L88 23.5V21H92V27Z" fill="#27262C"/>
<path d="M114.5 25H116L118 27V29H112L114.5 25Z" fill="#929292"/>
<path fill-rule="evenodd" clip-rule="evenodd" d="M115.054 26L113.804 28H117V27.4142L115.586 26H115.054ZM116 25H114.5L112 29H118V27L116 25Z" fill="#27262C"/>
<path d="M113.148 24.0245C113.544 23.4587 114.323 23.3206 114.889 23.7161C115.455 24.1116 115.593 24.891 115.197 25.4568L113.765 27.5058C113.37 28.0717 112.59 28.2098 112.025 27.8142C111.459 27.4187 111.321 26.6394 111.716 26.0736L113.148 24.0245Z" fill="#929292"/>
<path fill-rule="evenodd" clip-rule="evenodd" d="M112.946 26.9329L114.378 24.8839C114.457 24.7707 114.429 24.6149 114.316 24.5358C114.203 24.4567 114.047 24.4843 113.968 24.5974L112.536 26.6465C112.457 26.7597 112.484 26.9155 112.597 26.9946C112.711 27.0737 112.866 27.0461 112.946 26.9329ZM114.889 23.7161C114.323 23.3206 113.544 23.4587 113.148 24.0245L111.716 26.0736C111.321 26.6394 111.459 27.4187 112.025 27.8142C112.59 28.2098 113.37 28.0717 113.765 27.5058L115.197 25.4568C115.593 24.891 115.455 24.1116 114.889 23.7161Z" fill="#27262C"/>
<path d="M66 43H103V46H66V43Z" fill="#D0232F"/>
<path fill-rule="evenodd" clip-rule="evenodd" d="M102 44H67V45H102V44ZM66 43V46H103V43H66Z" fill="#27262C"/>
<path d="M64 45H103V48H64V45Z" fill="#D0232F"/>
<path fill-rule="evenodd" clip-rule="evenodd" d="M102 46H65V47H102V46ZM64 45V48H103V45H64Z" fill="#27262C"/>
<path d="M49 10H58V19.5H66L72 24V34H49V10Z" fill="#D0232F"/>
<path d="M63.9242 23.0151C63.7636 23.0341 63.5634 23.0791 63.415 23.1308C62.5027 23.4426 61.8628 24.2433 61.7552 25.1991C61.747 25.2767 61.7416 26.1863 61.7416 27.6595V29.9988H62.647H63.5525V28.9912V27.9836H64.5805H65.6085V27.0781V26.1727H64.5805H63.5525V25.7601C63.5525 25.3108 63.5593 25.2522 63.6315 25.1188C63.6791 25.0303 63.799 24.9104 63.8875 24.8628C64.0345 24.7838 64.0318 24.7838 65.0598 24.7838H66.0034V23.892V23.0001L65.0135 23.0015C64.4675 23.0028 63.9787 23.0083 63.9242 23.0151Z" fill="white"/>
<path d="M53 23.3336C53 23.5024 53.0041 23.6399 53.0109 23.6399C53.0163 23.6386 53.0599 23.6304 53.1089 23.6195C53.2424 23.5895 53.5283 23.5787 53.6944 23.5977C53.8823 23.6195 54.1056 23.6685 54.2894 23.7284C54.4855 23.7911 54.6639 23.8169 54.9063 23.8169C55.2793 23.8169 55.7164 23.7448 56.144 23.6113C56.2148 23.5895 56.2747 23.5746 56.2774 23.5773C56.2815 23.58 56.2774 23.6154 56.2692 23.6563C56.2338 23.851 56.1399 23.998 55.9588 24.1437C55.6429 24.3983 55.1159 24.574 54.3956 24.6652L54.1506 24.6965L54.1546 24.7483C54.1737 24.962 54.3289 25.1568 54.6612 25.3814C54.9049 25.5462 55.0029 25.6265 55.1609 25.7872C55.4645 26.0949 55.6592 26.4789 55.7559 26.965C55.8036 27.2033 55.8226 27.432 55.8158 27.7411L55.8117 28.0107L55.8798 28.0393C55.9179 28.0556 55.9887 28.072 56.0378 28.076C56.1834 28.0856 56.2365 28.0665 56.6763 27.8296C56.9269 27.6962 57.1665 27.6403 57.3789 27.6676C57.496 27.6839 57.5314 27.6948 57.496 27.7071C57.4361 27.7288 57.2659 27.8623 57.172 27.9589C57.0181 28.1196 56.9078 28.3225 56.8751 28.5036C56.8683 28.5417 56.8479 28.5689 56.788 28.6207C56.6192 28.765 56.4367 28.8603 56.2161 28.9189C56.0963 28.9516 56.0595 28.9543 55.8253 28.9556C55.5939 28.9556 55.5489 28.9529 55.3964 28.9189C55.0492 28.844 54.7878 28.8821 54.4093 29.0659C54.0729 29.228 53.5923 29.5847 53.2791 29.9033L53.1838 30L55.0084 29.9959L56.8329 29.9905L56.9895 29.9605C57.8746 29.7849 58.5063 29.2035 58.6806 28.4028C58.7065 28.2844 58.7106 28.2217 58.7106 28.0039C58.7106 27.7697 58.7065 27.7302 58.6725 27.5818C58.588 27.2182 58.4369 26.9268 58.215 26.7022C58.1101 26.596 57.895 26.4448 57.8106 26.4162C57.7861 26.4081 57.7656 26.3972 57.7656 26.3917C57.7656 26.3863 57.7929 26.3618 57.8269 26.3373C58.0897 26.1494 58.2885 25.8348 58.3879 25.4522C58.4233 25.3188 58.426 25.2888 58.4247 25.0492C58.4247 24.7701 58.4056 24.6448 58.3307 24.4201C58.0761 23.6644 57.3857 23.1361 56.5238 23.0422C56.4367 23.0326 55.8049 23.0272 54.6952 23.0272H53V23.3336Z" fill="white"/>
<path d="M59.3314 26.5131V29.9988H60.2437H61.156V26.5131V23.0273H60.2437H59.3314V26.5131Z" fill="white"/>
<path fill-rule="evenodd" clip-rule="evenodd" d="M58 19.5V10H49V34H72V24L66 19.5H58ZM65.6667 20.5H57V11H50V33H71V24.5L65.6667 20.5Z" fill="#27262C"/>
<path d="M38 34H62V45H49.5L38 34Z" fill="#D0232F"/>
<path fill-rule="evenodd" clip-rule="evenodd" d="M38 34L49.5 45H62V34H38ZM40.4922 35L49.9013 44H61V35H40.4922Z" fill="#27262C"/>
<path d="M60 39.5C60 40.8807 58.8807 42 57.5 42C56.1193 42 55 40.8807 55 39.5C55 38.1193 56.1193 37 57.5 37C58.8807 37 60 38.1193 60 39.5Z" fill="#D0232F"/>
<path fill-rule="evenodd" clip-rule="evenodd" d="M57.5 41C58.3284 41 59 40.3284 59 39.5C59 38.6716 58.3284 38 57.5 38C56.6716 38 56 38.6716 56 39.5C56 40.3284 56.6716 41 57.5 41ZM57.5 42C58.8807 42 60 40.8807 60 39.5C60 38.1193 58.8807 37 57.5 37C56.1193 37 55 38.1193 55 39.5C55 40.8807 56.1193 42 57.5 42Z" fill="#27262C"/>
<path d="M49 39H53V40H49V39Z" fill="#27262C"/>
<path d="M69.4733 36.0879C70.663 37.2411 70.8845 38.9425 69.9679 39.8881C69.0513 40.8337 67.3438 40.6655 66.1541 39.5123C64.9644 38.3591 64.743 36.6577 65.6596 35.7121C66.5762 34.7665 68.2836 34.9348 69.4733 36.0879Z" fill="#D0232F"/>
<path fill-rule="evenodd" clip-rule="evenodd" d="M69.2498 39.1921C69.6415 38.7881 69.733 37.7323 68.7773 36.806C67.8217 35.8797 66.7693 36.0041 66.3776 36.4081C65.986 36.8122 65.8945 37.8679 66.8501 38.7943C67.8058 39.7206 68.8582 39.5961 69.2498 39.1921ZM69.9679 39.8881C70.8845 38.9425 70.663 37.2411 69.4733 36.0879C68.2836 34.9348 66.5762 34.7665 65.6596 35.7121C64.743 36.6577 64.9644 38.3591 66.1541 39.5123C67.3438 40.6655 69.0513 40.8337 69.9679 39.8881Z" fill="#27262C"/>
<path d="M25 12H50V15H25V12Z" fill="#D0232F"/>
<path fill-rule="evenodd" clip-rule="evenodd" d="M49 13H26V14H49V13ZM25 12V15H50V12H25Z" fill="#27262C"/>
<path d="M25 14H50V18H25V14Z" fill="#D0232F"/>
<path fill-rule="evenodd" clip-rule="evenodd" d="M49 15H26V17H49V15ZM25 14V18H50V14H25Z" fill="#27262C"/>
<path d="M25 17H50V20H25V17Z" fill="#D0232F"/>
<path fill-rule="evenodd" clip-rule="evenodd" d="M49 18H26V19H49V18ZM25 17V20H50V17H25Z" fill="#27262C"/>
<path d="M0 7H26V23H4L0 19V7Z" fill="#D0232F"/>
<path fill-rule="evenodd" clip-rule="evenodd" d="M25 8H1V18.5858L4.41421 22H25V8ZM4 23L0 19V7H26V23H4Z" fill="#27262C"/>
<path fill-rule="evenodd" clip-rule="evenodd" d="M5.5 19H0.5V18H6.1901L10.8322 22.1263L10.1678 22.8737L6.5 19.6134V19.7929L8.85355 22.1464L8.14645 22.8536L5.79289 20.5H1.5V19.5H5.5V19Z" fill="#27262C"/>
<path fill-rule="evenodd" clip-rule="evenodd" d="M10.8816 15.4062L9.91547 15.148C9.97042 14.9424 10 14.7254 10 14.5C10 14.2746 9.97042 14.0576 9.91547 13.852L10.8816 13.5938C10.9588 13.8828 11 14.1866 11 14.5C11 14.8134 10.9588 15.1172 10.8816 15.4062ZM10.5316 12.7497L9.66604 13.2505C9.44633 12.8708 9.12921 12.5537 8.74947 12.334L9.25028 11.4684C9.78141 11.7757 10.2243 12.2186 10.5316 12.7497ZM8.4062 11.1184C8.11716 11.0412 7.81339 11 7.5 11C7.18661 11 6.88284 11.0412 6.5938 11.1184L6.85204 12.0845C7.0576 12.0296 7.27458 12 7.5 12C7.72542 12 7.9424 12.0296 8.14796 12.0845L8.4062 11.1184ZM5.74972 11.4684L6.25053 12.334C5.87079 12.5537 5.55367 12.8708 5.33396 13.2505L4.4684 12.7497C4.77571 12.2186 5.21859 11.7757 5.74972 11.4684ZM4.11845 13.5938C4.04119 13.8828 4 14.1866 4 14.5C4 14.8134 4.04119 15.1172 4.11845 15.4062L5.08453 15.148C5.02958 14.9424 5 14.7254 5 14.5C5 14.2746 5.02958 14.0576 5.08453 13.852L4.11845 13.5938ZM4.4684 16.2503L5.33396 15.7495C5.55367 16.1292 5.87079 16.4463 6.25053 16.666L5.74972 17.5316C5.21859 17.2243 4.77571 16.7814 4.4684 16.2503ZM6.5938 17.8816L6.85204 16.9155C7.0576 16.9704 7.27458 17 7.5 17C7.72542 17 7.9424 16.9704 8.14796 16.9155L8.4062 17.8816C8.11716 17.9588 7.81339 18 7.5 18C7.18661 18 6.88284 17.9588 6.5938 17.8816ZM9.25028 17.5316L8.74947 16.666C9.12921 16.4463 9.44633 16.1292 9.66604 15.7495L10.5316 16.2503C10.2243 16.7814 9.78141 17.2243 9.25028 17.5316Z" fill="#27262C"/>
<path fill-rule="evenodd" clip-rule="evenodd" d="M12.9173 15.4556L11.9323 15.283C11.9767 15.0294 12 14.7678 12 14.5C12 14.2322 11.9767 13.9706 11.9323 13.717L12.9173 13.5444C12.9717 13.8548 13 14.1741 13 14.5C13 14.8259 12.9717 15.1452 12.9173 15.4556ZM12.6697 12.6184L11.73 12.9605C11.5491 12.4634 11.2825 12.0065 10.9477 11.6078L11.7134 10.9646C12.1221 11.4513 12.4481 12.0097 12.6697 12.6184ZM11.0354 10.2866L10.3922 11.0523C9.9935 10.7175 9.5366 10.4509 9.03954 10.27L9.38163 9.33029C9.99027 9.55187 10.5487 9.87787 11.0354 10.2866ZM8.45556 9.08271L8.28301 10.0677C8.02939 10.0233 7.76782 10 7.5 10C7.23218 10 6.97061 10.0233 6.71699 10.0677L6.54444 9.08271C6.85478 9.02835 7.17408 9 7.5 9C7.82592 9 8.14522 9.02835 8.45556 9.08271ZM5.61837 9.33029L5.96046 10.27C5.4634 10.4509 5.0065 10.7175 4.6078 11.0523L3.96462 10.2866C4.45126 9.87787 5.00973 9.55187 5.61837 9.33029ZM3.28663 10.9646L4.05235 11.6078C3.71745 12.0065 3.45091 12.4634 3.26995 12.9605L2.33029 12.6184C2.55187 12.0097 2.87787 11.4513 3.28663 10.9646ZM2.08271 13.5444C2.02835 13.8548 2 14.1741 2 14.5C2 14.8259 2.02835 15.1452 2.08271 15.4556L3.06772 15.283C3.02329 15.0294 3 14.7678 3 14.5C3 14.2322 3.02329 13.9706 3.06772 13.717L2.08271 13.5444ZM2.33029 16.3816L3.26995 16.0395C3.45091 16.5366 3.71745 16.9935 4.05235 17.3922L3.28663 18.0354C2.87787 17.5487 2.55187 16.9903 2.33029 16.3816ZM3.96462 18.7134L4.6078 17.9477C5.0065 18.2825 5.4634 18.5491 5.96046 18.73L5.61837 19.6697C5.00973 19.4481 4.45126 19.1221 3.96462 18.7134ZM6.54444 19.9173L6.71699 18.9323C6.97061 18.9767 7.23218 19 7.5 19C7.76782 19 8.02939 18.9767 8.28301 18.9323L8.45556 19.9173C8.14522 19.9717 7.82592 20 7.5 20C7.17408 20 6.85478 19.9717 6.54444 19.9173ZM9.38163 19.6697L9.03954 18.73C9.5366 18.5491 9.9935 18.2825 10.3922 17.9477L11.0354 18.7134C10.5487 19.1221 9.99027 19.4481 9.38163 19.6697ZM11.7134 18.0354L10.9477 17.3922C11.2825 16.9935 11.5491 16.5366 11.73 16.0395L12.6697 16.3816C12.4481 16.9903 12.1221 17.5487 11.7134 18.0354Z" fill="#27262C"/>
<path d="M4 22H26V25H4V22Z" fill="#D0232F"/>
<path fill-rule="evenodd" clip-rule="evenodd" d="M25 23H5V24H25V23ZM4 22V25H26V22H4Z" fill="#27262C"/>
<path d="M4 24H11V27H4V24Z" fill="#D0232F"/>
<path fill-rule="evenodd" clip-rule="evenodd" d="M10 25H5V26H10V25ZM4 24V27H11V24H4Z" fill="#27262C"/>
<path d="M10 20H18V26H10V20Z" fill="#D0232F"/>
<path fill-rule="evenodd" clip-rule="evenodd" d="M17 21H11V25H17V21ZM10 20V26H18V20H10Z" fill="#27262C"/>
<path d="M10 20H13V26H10V20Z" fill="#D0232F"/>
<path fill-rule="evenodd" clip-rule="evenodd" d="M12 21H11V25H12V21ZM10 20V26H13V20H10Z" fill="#27262C"/>
<path d="M13 25H14V28H13V25Z" fill="#27262C"/>
<path d="M15 25H16V28H15V25Z" fill="#27262C"/>
<path d="M23 22H24V26H23V22Z" fill="#27262C"/>
<path d="M25 22H26V27H25V22Z" fill="#27262C"/>
<path d="M13 7H17V10H16V11H13V7Z" fill="#D0232F"/>
<path fill-rule="evenodd" clip-rule="evenodd" d="M15 9H16V8H14V10H15V9ZM16 10V11H13V7H17V10H16Z" fill="#27262C"/>
<path d="M17 5.5C17 6.32843 16.1046 6.5 15 6.5C13.8954 6.5 13 6.32843 13 5.5C13 4.67157 13.8954 2 15 2C16.1046 2 17 4.67157 17 5.5Z" fill="#D0232F"/>
<path fill-rule="evenodd" clip-rule="evenodd" d="M16.0837 5.36213C16.0837 5.36214 16.0834 5.36232 16.0829 5.36268L16.0837 5.36213ZM15.9921 5.40067C15.9783 5.29012 15.945 5.10946 15.8788 4.8695C15.7912 4.55179 15.6636 4.19388 15.5089 3.86408C15.3502 3.5259 15.1848 3.26401 15.0383 3.10277C15.0245 3.08754 15.0117 3.07415 15 3.0624C14.9883 3.07415 14.9755 3.08754 14.9617 3.10277C14.8152 3.26401 14.6498 3.5259 14.4911 3.86408C14.3364 4.19388 14.2088 4.55179 14.1212 4.8695C14.055 5.10946 14.0217 5.29012 14.0079 5.40067C14.0814 5.42451 14.1898 5.44906 14.3419 5.46753C14.527 5.48998 14.7466 5.5 15 5.5C15.2534 5.5 15.473 5.48998 15.6581 5.46753C15.8102 5.44906 15.9186 5.42451 15.9921 5.40067ZM13.9163 5.36213C13.9163 5.36213 13.9166 5.36231 13.9171 5.36268L13.9163 5.36213ZM15.0953 2.98353C15.0953 2.98359 15.0942 2.98418 15.0921 2.9851C15.0942 2.98392 15.0953 2.98346 15.0953 2.98353ZM14.9079 2.9851C14.9058 2.98418 14.9047 2.98359 14.9047 2.98353C14.9047 2.98346 14.9058 2.98392 14.9079 2.9851ZM15 6.5C16.1046 6.5 17 6.32843 17 5.5C17 4.67157 16.1046 2 15 2C13.8954 2 13 4.67157 13 5.5C13 6.32843 13.8954 6.5 15 6.5Z" fill="#27262C"/>
<path d="M14 6H16V7H14V6Z" fill="#27262C"/>
<path d="M13 27H16V28H13V27Z" fill="#27262C"/>
<path fill-rule="evenodd" clip-rule="evenodd" d="M12 13H25.5V14H13V19.2929L17.8536 24.1464L17.1464 24.8536L12 19.7071V13Z" fill="#27262C"/>
<path d="M17 15H25V16H17V15Z" fill="#27262C"/>
<path d="M20 17H25V18H20V17Z" fill="#27262C"/>
<path d="M60 12H67V18H59V15L60 12Z" fill="#D0232F"/>
<path fill-rule="evenodd" clip-rule="evenodd" d="M60.7208 13L60 15.1623V17H66V13H60.7208ZM59 15L60 12H67V18H59V15Z" fill="#27262C"/>
<path d="M33 44H61V47H33V44Z" fill="#929292"/>
<path fill-rule="evenodd" clip-rule="evenodd" d="M60 45H34V46H60V45ZM33 44V47H61V44H33Z" fill="#27262C"/>
<path d="M186 35H188V49H186V35Z" fill="#27262C"/>
<path d="M188 29H189V49H188V29Z" fill="#27262C"/>
<path d="M176 22H186V25H176V22Z" fill="#D0232F"/>
<path fill-rule="evenodd" clip-rule="evenodd" d="M185 23H177V24H185V23ZM176 22V25H186V22H176Z" fill="#27262C"/>
<path d="M185 20H190V25H185V20Z" fill="#929292"/>
<path fill-rule="evenodd" clip-rule="evenodd" d="M189 21H186V24H189V21ZM185 20V25H190V20H185Z" fill="#27262C"/>
<path d="M180 6C180 4.89543 180.895 4 182 4C183.105 4 184 4.89543 184 6V23H180V6Z" fill="#929292"/>
<path fill-rule="evenodd" clip-rule="evenodd" d="M183 22V6C183 5.44772 182.552 5 182 5C181.448 5 181 5.44772 181 6V22H183ZM182 4C180.895 4 180 4.89543 180 6V23H184V6C184 4.89543 183.105 4 182 4Z" fill="#27262C"/>
<path d="M179.518 3.58617C179.232 2.63505 179.771 1.63209 180.722 1.346C181.673 1.05992 182.676 1.59903 182.962 2.55015L183.653 4.84635C183.939 5.79747 183.4 6.80042 182.449 7.08651C181.498 7.3726 180.495 6.83349 180.209 5.88237L179.518 3.58617Z" fill="#929292"/>
<path fill-rule="evenodd" clip-rule="evenodd" d="M182.695 5.13439L182.005 2.83819C181.878 2.41595 181.432 2.17662 181.01 2.30362C180.588 2.43063 180.349 2.87588 180.476 3.29812L181.166 5.59432C181.293 6.01656 181.739 6.2559 182.161 6.12889C182.583 6.00189 182.822 5.55663 182.695 5.13439ZM180.722 1.346C179.771 1.63209 179.232 2.63505 179.518 3.58617L180.209 5.88237C180.495 6.83349 181.498 7.3726 182.449 7.08651C183.4 6.80042 183.939 5.79747 183.653 4.84635L182.962 2.55015C182.676 1.59903 181.673 1.05992 180.722 1.346Z" fill="#27262C"/>
</svg>
