<svg width="15" height="31" viewBox="0 0 15 31" fill="none" xmlns="http://www.w3.org/2000/svg">
<path d="M15 7C15 10.866 11.866 14 8 14C4.13401 14 1 10.866 1 7C1 3.13401 4.13401 0 8 0C11.866 0 15 3.13401 15 7Z" fill="#D0232F"/>
<path fill-rule="evenodd" clip-rule="evenodd" d="M8 13C11.3137 13 14 10.3137 14 7C14 3.68629 11.3137 1 8 1C4.68629 1 2 3.68629 2 7C2 10.3137 4.68629 13 8 13ZM8 14C11.866 14 15 10.866 15 7C15 3.13401 11.866 0 8 0C4.13401 0 1 3.13401 1 7C1 10.866 4.13401 14 8 14Z" fill="#27262C"/>
<path d="M13 7C13 9.76142 10.7614 12 8 12C5.23858 12 3 9.76142 3 7C3 4.23858 5.23858 2 8 2C10.7614 2 13 4.23858 13 7Z" fill="#D0232F"/>
<path fill-rule="evenodd" clip-rule="evenodd" d="M8 11C10.2091 11 12 9.20914 12 7C12 4.79086 10.2091 3 8 3C5.79086 3 4 4.79086 4 7C4 9.20914 5.79086 11 8 11ZM8 12C10.7614 12 13 9.76142 13 7C13 4.23858 10.7614 2 8 2C5.23858 2 3 4.23858 3 7C3 9.76142 5.23858 12 8 12Z" fill="#27262C"/>
<path d="M15 25.5C15 28.5376 12.5376 31 9.5 31C6.46243 31 4 28.5376 4 25.5C4 22.4624 6.46243 20 9.5 20C12.5376 20 15 22.4624 15 25.5Z" fill="#D0232F"/>
<path fill-rule="evenodd" clip-rule="evenodd" d="M9.5 30C11.9853 30 14 27.9853 14 25.5C14 23.0147 11.9853 21 9.5 21C7.01472 21 5 23.0147 5 25.5C5 27.9853 7.01472 30 9.5 30ZM9.5 31C12.5376 31 15 28.5376 15 25.5C15 22.4624 12.5376 20 9.5 20C6.46243 20 4 22.4624 4 25.5C4 28.5376 6.46243 31 9.5 31Z" fill="#27262C"/>
<path d="M0 5L9 6L13.0388 24.5787C13.533 26.8516 11.8015 29 9.4754 29C8.24306 29 7.09409 28.3776 6.4209 27.3454L0 17.5V5Z" fill="#D0232F"/>
<path fill-rule="evenodd" clip-rule="evenodd" d="M0 5V17.5L6.4209 27.3454C7.09409 28.3776 8.24306 29 9.4754 29C11.8015 29 13.533 26.8516 13.0388 24.5787L9 6L0 5ZM1 6.11726V17.2027L7.25851 26.7991C7.7471 27.5483 8.581 28 9.4754 28C11.1636 28 12.4203 26.4408 12.0617 24.7911L8.17546 6.91454L1 6.11726Z" fill="#27262C"/>
<path d="M0 5H8V9H0V5Z" fill="#D0232F"/>
<path fill-rule="evenodd" clip-rule="evenodd" d="M7 6H1V8H7V6ZM0 5V9H8V5H0Z" fill="#27262C"/>
<path d="M10 7C10 8.10457 9.10457 9 8 9C6.89543 9 6 8.10457 6 7C6 5.89543 6.89543 5 8 5C9.10457 5 10 5.89543 10 7Z" fill="#D0232F"/>
<path fill-rule="evenodd" clip-rule="evenodd" d="M8 8C8.55228 8 9 7.55228 9 7C9 6.44772 8.55228 6 8 6C7.44772 6 7 6.44772 7 7C7 7.55228 7.44772 8 8 8ZM8 9C9.10457 9 10 8.10457 10 7C10 5.89543 9.10457 5 8 5C6.89543 5 6 5.89543 6 7C6 8.10457 6.89543 9 8 9Z" fill="#27262C"/>
<path d="M11 25.5C11 26.3284 10.3284 27 9.5 27C8.67157 27 8 26.3284 8 25.5C8 24.6716 8.67157 24 9.5 24C10.3284 24 11 24.6716 11 25.5Z" fill="#D0232F"/>
<path fill-rule="evenodd" clip-rule="evenodd" d="M9.5 26C9.77614 26 10 25.7761 10 25.5C10 25.2239 9.77614 25 9.5 25C9.22386 25 9 25.2239 9 25.5C9 25.7761 9.22386 26 9.5 26ZM9.5 27C10.3284 27 11 26.3284 11 25.5C11 24.6716 10.3284 24 9.5 24C8.67157 24 8 24.6716 8 25.5C8 26.3284 8.67157 27 9.5 27Z" fill="#27262C"/>
<path d="M3.5 15.366C3.22386 14.8877 3.38773 14.2761 3.86603 14L4.73205 13.5C5.21034 13.2239 5.82193 13.3877 6.09808 13.866L8.09808 17.3301C8.37422 17.8084 8.21034 18.42 7.73205 18.6962L6.86603 19.1962C6.38773 19.4723 5.77614 19.3084 5.5 18.8301L3.5 15.366Z" fill="#D0232F"/>
<path fill-rule="evenodd" clip-rule="evenodd" d="M5.23205 14.366L4.36603 14.866L6.36603 18.3301L7.23205 17.8301L5.23205 14.366ZM3.86603 14C3.38773 14.2761 3.22386 14.8877 3.5 15.366L5.5 18.8301C5.77614 19.3084 6.38773 19.4723 6.86603 19.1962L7.73205 18.6962C8.21034 18.42 8.37422 17.8084 8.09808 17.3301L6.09808 13.866C5.82193 13.3877 5.21034 13.2239 4.73205 13.5L3.86603 14Z" fill="#27262C"/>
<path d="M3.5 15.366C3.22386 14.8877 3.38773 14.2761 3.86603 14L4.73205 13.5C5.21034 13.2239 5.82193 13.3877 6.09808 13.866L6.50642 14.5733C6.78257 15.0516 6.61869 15.6632 6.1404 15.9393L5.27437 16.4393C4.79608 16.7155 4.18449 16.5516 3.90835 16.0733L3.5 15.366Z" fill="#D0232F"/>
<path fill-rule="evenodd" clip-rule="evenodd" d="M5.23205 14.366L4.36603 14.866L4.77437 15.5733L5.6404 15.0733L5.23205 14.366ZM3.86603 14C3.38773 14.2761 3.22386 14.8877 3.5 15.366L3.90835 16.0733C4.18449 16.5516 4.79608 16.7155 5.27437 16.4393L6.1404 15.9393C6.61869 15.6632 6.78257 15.0516 6.50642 14.5733L6.09808 13.866C5.82193 13.3877 5.21034 13.2239 4.73205 13.5L3.86603 14Z" fill="#27262C"/>
</svg>
