<svg width="16" height="86" viewBox="0 0 16 86" fill="none" xmlns="http://www.w3.org/2000/svg">
<path fill-rule="evenodd" clip-rule="evenodd" d="M7.73823 80.0607C8.96553 80.0607 9.51579 79.1719 9.51579 78.283C9.51579 77.6254 9.03715 77.0769 8.5799 76.5529C8.41896 76.3685 8.26068 76.1871 8.12684 76.0051C7.65784 75.3672 8.44726 74.4752 9.23721 73.5825C9.50719 73.2775 9.77723 72.9723 9.99712 72.6772C10.091 73.107 10.3513 74.2474 10.6269 75.0052C10.8514 75.6226 11.1588 76.0819 11.4474 76.5132C11.8837 77.1652 12.2773 77.7533 12.2773 78.7274C12.2773 80.8585 10.6269 82.5052 8.6269 82.5052C6.41776 82.5052 5.12695 80.9366 5.12695 78.7274C5.12695 78.0773 5.30018 77.3142 5.54466 76.561C5.87523 77.2183 6.12705 77.7425 6.12705 78.0051C6.12705 79.2324 6.51093 80.0607 7.73823 80.0607Z" fill="#27262C"/>
<path d="M4.87025 55.096C5.02325 54.7346 5.37914 54.5051 5.77159 54.5051H12.4826C12.875 54.5051 13.2309 54.7346 13.3839 55.096C13.8556 56.2101 14.8379 58.6734 15.1271 60.5051C15.7349 64.3545 13.9998 69.9631 13.3566 71.8547C13.2224 72.2493 12.851 72.5051 12.4342 72.5051H5.82002C5.40321 72.5051 5.03182 72.2493 4.89762 71.8547C4.25435 69.9631 2.51929 64.3545 3.12709 60.5051C3.4163 58.6734 4.39861 56.2101 4.87025 55.096Z" fill="#929292"/>
<path fill-rule="evenodd" clip-rule="evenodd" d="M5.78298 55.5051C5.30557 56.6346 4.38095 58.9758 4.11485 60.6611C3.83972 62.4036 4.09106 64.6246 4.5225 66.7117C4.94504 68.7557 5.51859 70.5722 5.835 71.5051H12.4192C12.7356 70.5722 13.3091 68.7557 13.7317 66.7117C14.1631 64.6246 14.4145 62.4036 14.1393 60.6611C13.8732 58.9758 12.9486 56.6346 12.4712 55.5051H5.78298ZM5.77159 54.5051C5.37914 54.5051 5.02325 54.7346 4.87025 55.096C4.39861 56.2101 3.4163 58.6734 3.12709 60.5051C2.51929 64.3545 4.25435 69.9631 4.89762 71.8547C5.03182 72.2493 5.40321 72.5051 5.82002 72.5051H12.4342C12.851 72.5051 13.2224 72.2493 13.3566 71.8547C13.9998 69.9631 15.7349 64.3545 15.1271 60.5051C14.8379 58.6734 13.8556 56.2101 13.3839 55.096C13.2309 54.7346 12.875 54.5051 12.4826 54.5051H5.77159Z" fill="#27262C"/>
<path d="M12.627 61.0051C12.627 62.9381 11.0599 64.5051 9.12695 64.5051C7.19396 64.5051 5.62695 62.9381 5.62695 61.0051C5.62695 59.0721 7.19396 57.5051 9.12695 57.5051C11.0599 57.5051 12.627 59.0721 12.627 61.0051Z" fill="#929292"/>
<path fill-rule="evenodd" clip-rule="evenodd" d="M9.12695 63.5051C10.5077 63.5051 11.627 62.3858 11.627 61.0051C11.627 59.6244 10.5077 58.5051 9.12695 58.5051C7.74624 58.5051 6.62695 59.6244 6.62695 61.0051C6.62695 62.3858 7.74624 63.5051 9.12695 63.5051ZM9.12695 64.5051C11.0599 64.5051 12.627 62.9381 12.627 61.0051C12.627 59.0721 11.0599 57.5051 9.12695 57.5051C7.19396 57.5051 5.62695 59.0721 5.62695 61.0051C5.62695 62.9381 7.19396 64.5051 9.12695 64.5051Z" fill="#27262C"/>
<path d="M10.627 61.0051C10.627 61.8336 9.95538 62.5051 9.12695 62.5051C8.29853 62.5051 7.62695 61.8336 7.62695 61.0051C7.62695 60.1767 8.29853 59.5051 9.12695 59.5051C9.95538 59.5051 10.627 60.1767 10.627 61.0051Z" fill="#929292"/>
<path fill-rule="evenodd" clip-rule="evenodd" d="M9.12695 61.5051C9.4031 61.5051 9.62695 61.2813 9.62695 61.0051C9.62695 60.729 9.4031 60.5051 9.12695 60.5051C8.85081 60.5051 8.62695 60.729 8.62695 61.0051C8.62695 61.2813 8.85081 61.5051 9.12695 61.5051ZM9.12695 62.5051C9.95538 62.5051 10.627 61.8336 10.627 61.0051C10.627 60.1767 9.95538 59.5051 9.12695 59.5051C8.29853 59.5051 7.62695 60.1767 7.62695 61.0051C7.62695 61.8336 8.29853 62.5051 9.12695 62.5051Z" fill="#27262C"/>
<path fill-rule="evenodd" clip-rule="evenodd" d="M9.12695 69.5051C9.4031 69.5051 9.62695 69.2813 9.62695 69.0051C9.62695 68.729 9.4031 68.5051 9.12695 68.5051C8.85081 68.5051 8.62695 68.729 8.62695 69.0051C8.62695 69.2813 8.85081 69.5051 9.12695 69.5051ZM9.12695 70.5051C9.95538 70.5051 10.627 69.8336 10.627 69.0051C10.627 68.1767 9.95538 67.5051 9.12695 67.5051C8.29853 67.5051 7.62695 68.1767 7.62695 69.0051C7.62695 69.8336 8.29853 70.5051 9.12695 70.5051Z" fill="#27262C"/>
<path d="M3.62695 61.5051H6.12695L8.62695 64.5051L3.62695 66.5051V61.5051Z" fill="#27262C"/>
<path d="M14.627 61.5051H12.127L9.62695 64.5051L14.627 66.5051V61.5051Z" fill="#27262C"/>
<path fill-rule="evenodd" clip-rule="evenodd" d="M7.77344 58.3587L4.77344 55.3587L5.48054 54.6516L8.48054 57.6516L7.77344 58.3587ZM13.4805 55.3587L10.4805 58.3587L9.77344 57.6516L12.7734 54.6516L13.4805 55.3587Z" fill="#27262C"/>
<path d="M6.62695 71.5051H11.627V73.0051C11.627 74.3858 10.5077 75.5051 9.12695 75.5051V75.5051C7.74624 75.5051 6.62695 74.3858 6.62695 73.0051V71.5051Z" fill="#27262C"/>
<path d="M9 48.5051H13V51.5051H12V52.5051H13V55.5051H9V48.5051Z" fill="#929292"/>
<path fill-rule="evenodd" clip-rule="evenodd" d="M11 50.5051H12V49.5051H10V54.5051H12V53.5051H11V50.5051ZM9 48.5051V55.5051H13V52.5051H12V51.5051H13V48.5051H9Z" fill="#27262C"/>
<path fill-rule="evenodd" clip-rule="evenodd" d="M11.5 49.0102L11 0.0102036L11.9999 0L12.4999 49L11.5 49.0102Z" fill="#27262C"/>
<path fill-rule="evenodd" clip-rule="evenodd" d="M5.00317 55.0604L1.00317 19.0604L1.99706 18.95L5.99706 54.95L5.00317 55.0604Z" fill="#27262C"/>
<path d="M1 26.7898L3.98647 26.5052L5.0301 37.4555L2.04363 37.7402L1 26.7898Z" fill="#D0232F"/>
<path fill-rule="evenodd" clip-rule="evenodd" d="M3.08585 27.5955L2.09036 27.6904L2.94424 36.6498L3.93973 36.5549L3.08585 27.5955ZM1 26.7898L2.04363 37.7402L5.0301 37.4555L3.98647 26.5052L1 26.7898Z" fill="#27262C"/>
<path fill-rule="evenodd" clip-rule="evenodd" d="M7.64645 77.6464C7.84171 77.4512 8.15829 77.4512 8.35355 77.6464L14.8536 84.1464C15.0488 84.3417 15.0488 84.6583 14.8536 84.8536C14.6583 85.0488 14.3417 85.0488 14.1464 84.8536L7.64645 78.3536C7.45118 78.1583 7.45118 77.8417 7.64645 77.6464Z" fill="#27262C"/>
<path fill-rule="evenodd" clip-rule="evenodd" d="M8.35355 77.6464C8.54882 77.8417 8.54882 78.1583 8.35355 78.3536L1.85355 84.8536C1.65829 85.0488 1.34171 85.0488 1.14645 84.8536C0.951184 84.6583 0.951184 84.3417 1.14645 84.1464L7.64645 77.6464C7.84171 77.4512 8.15829 77.4512 8.35355 77.6464Z" fill="#27262C"/>
<path fill-rule="evenodd" clip-rule="evenodd" d="M8 79C8.55228 79 9 78.5523 9 78C9 77.4477 8.55228 77 8 77C7.44772 77 7 77.4477 7 78C7 78.5523 7.44772 79 8 79ZM8 80C9.10457 80 10 79.1046 10 78C10 76.8954 9.10457 76 8 76C6.89543 76 6 76.8954 6 78C6 79.1046 6.89543 80 8 80Z" fill="#929292"/>
<path d="M9 78C9 78.5523 8.55228 79 8 79C7.44772 79 7 78.5523 7 78C7 77.4477 7.44772 77 8 77C8.55228 77 9 77.4477 9 78Z" fill="#27262C"/>
<path d="M2 85C2 85.5523 1.55228 86 1 86C0.447715 86 0 85.5523 0 85C0 84.4477 0.447715 84 1 84C1.55228 84 2 84.4477 2 85Z" fill="#929292"/>
<path d="M16 85C16 85.5523 15.5523 86 15 86C14.4477 86 14 85.5523 14 85C14 84.4477 14.4477 84 15 84C15.5523 84 16 84.4477 16 85Z" fill="#929292"/>
</svg>
